<svg xmlns="http://www.w3.org/2000/svg" width="1131.53" height="860.78"><defs><clipPath id="clip-path"><path d="M658.45 288.19H449.26a13.46 13.46 0 00-13.41 14.71l11.95 129.69a13.48 13.48 0 0013.42 12.23H670.4a13.48 13.48 0 0013.42-14.71l-12-129.69a13.47 13.47 0 00-13.37-12.23z" fill="#0072bc" opacity=".1"/></clipPath></defs><g style="isolation:isolate"><g id="Layer_2" data-name="Layer 2"><g id="Graphics"><path fill="#0072bc" opacity=".1" d="M713.88 0h311.6v228.75h-311.6z"/><path d="M757.8 135c46.61 4.11 14.42 43.94 81.7 35s96.12 21.29 96.12 21.29H713.88v-30.8c9.05-12.96 19.36-27.7 43.92-25.49zm267.68-42v49.86h-172s17.5-40.16 72.08-21.62c12.28 4.17 25.52 1.15 36.54-5.08 8.16-4.62 14.74-11.21 20.57-18.47 5.23-6.5 10.07-16.26 18.85-18.36 4.52-1.08 9.36.27 13.28 2.76A37.93 37.93 0 011025.48 93zM871.66 74.51H713.88v-16q4 .28 8.29.84c47.87 6.36 25-22 58.13-24.9s29.8 37.62 53.26 30.28 38.1 9.78 38.1 9.78zm-69.65 788.16l56.71-329.5h44.36l-55.66 230.62h103.79l7.62 44.87H836.59l-13.03 54.01h-21.55z" fill="#0072bc" opacity=".1"/><path fill="#0072bc" d="M964.76 862.67h21.55l-56.71-329.5h-44.36l79.52 329.5z"/><path transform="rotate(-180 764.345 514.775)" fill="#0072bc" d="M513.34 495.15h502.01v39.24H513.34z"/><path d="M705.75 836.27l-12.55 25.81H647a3.14 3.14 0 01-3.15-2.72 3 3 0 011.66-3.28 61 61 0 0117.38-5.78c17.75-3.2 24.53-14.3 24.53-14.3l6.55.11z" fill="#ff9200"/><path d="M705.75 836.27l-12.55 25.81H647a3.14 3.14 0 01-3.15-2.72L680.7 855l13.3-18.94.59-.84z" fill="#ff7f00"/><path d="M876.3 595.58l-5.1 19.63a57.44 57.44 0 01-55.58 43h-24.26l-82.23 178.23h-25.57l61.15-196.93a60.17 60.17 0 0157.15-43.18z" fill="#004f86"/><path d="M896.46 596.42h-10c-33.8.06-119.05.43-125.74.43l5.19-29 24.22-135.4a26.37 26.37 0 018.34-15c10.27-9.23 9.19-21.33 18.32-21.53l28 1.17 4.8.19 3.33.14a74.07 74.07 0 0010.75 13.41c20.88 19.8 15.63 106.2 27.89 166.29a188.06 188.06 0 004.9 19.3z" fill="#fff"/><path d="M891.54 577.11l-5.07 19.32c-33.8.06-119.05.43-125.74.43l5.19-29c55.11 7.95 81.06-27.05 88.58-98.1 4.33-40.86-.09-61.85-4.93-72.46l3.33.14a74.07 74.07 0 0010.75 13.41c20.88 19.77 15.63 106.15 27.89 166.26z" fill="#e4eaf1" opacity=".8"/><path d="M624.42 836.27l-12.55 25.81h-46.23a3.14 3.14 0 01-3.16-2.72 3.08 3.08 0 011.67-3.28 61.14 61.14 0 0117.38-5.78c17.79-3.2 24.57-14.3 24.57-14.3l6.55.11z" fill="#ff9200"/><path d="M624.42 836.27l-12.55 25.81h-46.23a3.14 3.14 0 01-3.16-2.72l36.89-4.4 13.28-18.89.59-.84z" fill="#ff7f00"/><path d="M849.27 595.57l-.75 35.77-.13 6.3-3.48 20.55H710l-82.2 178.25h-25.57l61.16-196.94a60.16 60.16 0 0157.14-43.18z" fill="#0072bc"/><path d="M848.52 631.34l-.13 6.3-3.48 20.55H710l-82.2 178.25h-15l79.49-205.35s123.71.67 156.23.25z" fill="#004f86" opacity=".3"/><path d="M848.44 398.47c-16.65 2.06-32 26-32.47 26.7a64 64 0 004.87-32.34c-1.71-16.72-10.88-12.53-23.05-18.09-6.11-2.79-9.92-9.46-12.59-15.32-3.29-7.19-5.57-19-4.49-27a63.63 63.63 0 013.43-12.35c1.26-3.58 2.63-2.41 2.64-6.23s-.3-7.61 0-11.41a14.08 14.08 0 01.73-3.76c4.28-11.46 20.31-3.81 27.14.24 8.84 5.24 17.63 12.83 22.18 22.23a22 22 0 012 6.24c1.09 7.15-2.86 17.17-8.82 26.54 10.36.13 21.13 1.74 19.18 8.05-3.63 11.69.26 18.33 3.47 26.31s12.69 8.09-4.22 10.19z" fill="#f9c4b4"/><path fill="#162c47" d="M947.06 860.75h-5.92l-41.42-184.1h12.16l35.18 184.1z"/><path d="M913.55 674.63h-16.36l42.33 188.15h10zm-1.67 2l35.18 184.1h-5.92l-41.42-184.1z" fill="#0072bc"/><path fill="#162c47" d="M846.1 676.65l-41.43 184.1h-5.91l35.18-184.1h12.16z"/><path d="M832.26 674.63l-36 188.15h10l42.34-188.15zm-33.5 186.12l35.18-184.1h12.16l-41.43 184.1z" fill="#0072bc"/><path fill="#162c47" d="M882.7 860.75h-5.92l-41.42-184.1h12.16l35.18 184.1z"/><path d="M849.19 674.63h-16.36l42.33 188.15h10zm-1.67 2l35.18 184.1h-5.92l-41.42-184.1z" fill="#0072bc"/><path fill="#162c47" d="M781.74 676.65l-41.43 184.1h-5.92l35.18-184.1h12.17z"/><path d="M767.9 674.63L732 862.78h10l42.34-188.15zm-33.51 186.12l35.18-184.1h12.17l-41.43 184.1z" fill="#0072bc"/><path d="M949.88 510.15L919 635.42h-91.34a15 15 0 01-14.59-18.63l21.77-88.3a24.06 24.06 0 0123.41-18.34z" fill="#162c47"/><path d="M858.25 508.12A26.14 26.14 0 00832.88 528l-21.78 88.3a17.06 17.06 0 0016.56 21.14h92.91l31.89-129.32zm-30.59 127.3a15 15 0 01-14.59-18.63l21.77-88.3a24.06 24.06 0 0123.41-18.34h91.63L919 635.42z" fill="#0072bc"/><path fill="#fff" d="M742.72 657.4h.01l-.01.05v-.05z"/><path d="M818.29 659.42l-4.55 18.38H739.9a27.38 27.38 0 0125.87-18.35z" fill="#162c47"/><path d="M765.77 657.43a29.47 29.47 0 00-28.58 22.39h78.14l5.55-22.42zM739.9 677.8a27.38 27.38 0 0125.87-18.35h52.52l-4.55 18.38z" fill="#0072bc"/><path d="M919.07 637l.37-1.54h19.46l30.89-125.27H859.28l-30.89 125.23h21.16l-.62 2.51-4.92 20-.38 1.54h-24l-2.78 12.2-1.4 6.18h112.93l4.55-18.38h-19.4l.61-2.51zm-11.93 1l-4.92 20-.38 1.54h-46.53l.62-2.51 4.92-20.03.38-1.54h46.53z" fill="#162c47"/><path d="M861.23 635.42l-.38 1.54-4.92 19.95-.62 2.51h46.53l.38-1.54 4.92-20 .62-2.51zm-3.34 22l4.92-20h42.37l-4.92 20z" fill="#0072bc"/><path d="M940.48 637.44l31.89-129.32H857.69l-31.58 128.07a1 1 0 001 1.25H847l-4.93 20h-24l-3.13 13.77-2 8.65H930v-.05l5.54-22.37h-19.43l4.92-20zm-21.41-.44l-4.93 19.95-.61 2.51h19.4l-4.55 18.38H815.5l1.4-6.18 2.78-12.2h24l.38-1.54 4.92-20 .62-2.51h-21.21l30.89-125.27h110.51L938.9 635.42h-19.46z" fill="#0072bc"/><path fill="#0072bc" opacity=".1" d="M306.92 862.67l56.71-329.5h44.36l-55.66 230.62h105.15l7.62 44.87H341.5l-13.03 54.01h-21.55z"/><path fill="#0072bc" d="M469.67 862.67h21.55l-56.71-329.5h-44.36l79.52 329.5zM598.69 445l-4.75 47.59h-71.33l4.75-47.59h71.33m2.21-2h-75.35l-5.15 51.59h75.35L600.9 443z"/><path d="M658.45 288.19H449.26a13.46 13.46 0 00-13.41 14.71l11.95 129.69a13.48 13.48 0 0013.42 12.23H670.4a13.48 13.48 0 0013.42-14.71l-12-129.69a13.47 13.47 0 00-13.37-12.23z" fill="#0072bc" opacity=".1"/><g clip-path="url(#clip-path)" fill="#0072bc"><path opacity=".1" d="M434.62 288.19h52.26l14.11 156.63h-52.25l-14.12-156.63z"/><path d="M684.45 421.29l3.07 23.53H446.64l-3.07-23.53h240.88z"/></g><path fill="#0072bc" d="M520.4 493.57h108.96v2H520.4z"/><path d="M559.55 495.16h42.92V490h-45.81v2.25a2.89 2.89 0 002.89 2.91z" fill="#d2d2d2"/><path d="M601.87 490h102.92a3.42 3.42 0 013.42 3.42v1.72H598.45v-1.72a3.42 3.42 0 013.42-3.42z" transform="rotate(-180 653.33 492.59)" fill="#fff"/><path transform="rotate(-180 630.23 489.345)" fill="#d2d2d2" d="M558.74 488.67h142.99v1.35H558.74z"/><path transform="rotate(-180 578.59 489.345)" fill="#d2d3d5" style="mix-blend-mode:multiply" d="M558.74 488.67h39.71v1.35h-39.71z"/><path fill="#0072bc" opacity=".1" d="M395.31 408.57l30.16-37.44L721.33 495.7H440.9l-45.59-87.13z"/><path d="M656 477.1l-4.36-1.8-25-.16-24.31 7.54c-1.23.38-1.43 2.54-.31 3.45a10.12 10.12 0 007 2.41c5-.32 9.89-.6 14.83-1s10.19.38 15.18.67l12.86.77a46.17 46.17 0 008.94-.5z" fill="#edb59f"/><path d="M776 511.14c8.28-3.16 14.43-6 22.45-9.82s17.49-9.46 25.07-14.11A215 215 0 01798 503.47c-7.9 4.12-14.31 7.42-22.52 10.91z" fill="#e4eaf1"/><path d="M641.45 471.19l9.27 21.23 79.49 21.27a83.15 83.15 0 0056.46-7.12l26-13.35s44.17-19.05 46.56-54.64-14.7-45.15-42.61-42.63c-20.5 1.85-81.42 77.29-81.42 77.29z" fill="#fff"/><path d="M372.91 495.15v-.45a15.84 15.84 0 00-15.83-15.84h-33l-24.39-35a9 9 0 01-.08-10.17l49.7-73.92a9 9 0 0112.11-3.36l11.09 6.09-6.6 8.19a13 13 0 00.58 17L390.91 414l38.24-47.47-31-18.25a13 13 0 00-16.72 3l-7.67 9.52-11.41-6.25a10.92 10.92 0 00-14.76 4.05l-49.67 73.87A10.93 10.93 0 00298 445l23.59 33.89h-34.02v16.29h-7.27v39.24h235.38v-39.27zm-83.34-14.29h67.51a13.85 13.85 0 0113.83 13.84v.45h-81.34zm224.11 51.53H282.3v-35.24h231.38z" fill="#0072bc"/><path fill="#0072bc" opacity=".1" d="M474.17 401.72l33.2-36.42 15.6 14.34 42.86-47 25.27 23.23 13.97-15.31 5.37 61.16"/><path d="M474.2 404.37a2.21 2.21 0 01-1.39-.49 2.33 2.33 0 01-.14-3.33l31.9-35a4 4 0 015.66-.25l12.64 11.7 40.16-44a4 4 0 015.66-.25L591 353.17l12.39-13.57a2.3 2.3 0 013-.38 2.22 2.22 0 01.32 3.28l-12.76 14a4 4 0 01-5.66.25L566 336.22l-40.15 44a4 4 0 01-5.67.25l-12.64-11.62-31.71 34.77a2.18 2.18 0 01-1.63.75z" fill="#0072bc"/><ellipse cx="639.46" cy="315.34" rx="3.96" ry="4.4" transform="rotate(-46.51 639.422 315.335)" fill="#0072bc"/><ellipse cx="640.21" cy="347.18" rx="1.48" ry="1.65" transform="rotate(-46.51 640.17 347.18)" fill="#0072bc"/><path d="M660.71 348H645.3a.89.89 0 01-.86-.78.69.69 0 01.69-.77h15.42a.89.89 0 01.86.77.69.69 0 01-.7.78z" fill="#0072bc"/><ellipse cx="640.91" cy="353.88" rx="1.48" ry="1.65" transform="rotate(-46.51 640.874 353.878)" fill="#0072bc"/><path d="M661.42 354.65H646a.87.87 0 01-.85-.77.68.68 0 01.69-.78h15.42a.88.88 0 01.85.78.67.67 0 01-.69.77z" fill="#0072bc"/><ellipse cx="641.62" cy="360.58" rx="1.48" ry="1.65" transform="rotate(-46.51 641.58 360.577)" fill="#0072bc"/><path d="M662.13 361.36h-15.42a.88.88 0 01-.86-.77.69.69 0 01.7-.78H662a.89.89 0 01.86.78.68.68 0 01-.73.77z" fill="#0072bc"/><ellipse cx="642.32" cy="367.28" rx="1.48" ry="1.65" transform="rotate(-46.51 642.284 367.275)" fill="#0072bc"/><path d="M662.83 368.06h-15.41a.88.88 0 01-.86-.78.68.68 0 01.69-.77h15.42a.89.89 0 01.86.77.69.69 0 01-.7.78z" fill="#0072bc"/><ellipse cx="643.03" cy="373.98" rx="1.48" ry="1.65" transform="rotate(-46.51 642.99 373.974)" fill="#0072bc"/><path d="M663.54 374.78h-15.42a.88.88 0 01-.85-.77.68.68 0 01.69-.78h15.42a.88.88 0 01.85.78.68.68 0 01-.69.77z" fill="#0072bc"/><ellipse cx="507.16" cy="366.3" rx="3.04" ry="3.32" transform="rotate(-46.26 507.136 366.29)" fill="#ff9100"/><ellipse cx="523.06" cy="379.19" rx="3.04" ry="3.32" transform="rotate(-46.26 523.028 379.182)" fill="#ff9100"/><ellipse cx="565.78" cy="333.64" rx="3.04" ry="3.32" transform="rotate(-46.26 565.71 333.634)" fill="#ff9100"/><ellipse cx="591.07" cy="355.3" rx="3.04" ry="3.32" transform="rotate(-46.25 591.13 355.313)" fill="#ff9100"/><path d="M1123.78 379.08H980v19h18.44v6.37h43.82v-6.37h20.43v6.37h44.54v-6.37h16.55zm-123.34 23.4v-4.14h16.46v4.14zm39.82 0h-20.88v-4.14h20.88zm41.37 0h-16.94v-4.14h16.94zm23.6 0h-21.35v-4.14h21.35zm16.55-6.37h-24.4v-15h24.4z" fill="#0072bc"/><path d="M1059.61 333.39l-7.36 46.69h-25.56a6 6 0 01-5.55-3.8c-2.92-7.48-6.17-15.94-6.17-24.92a87.23 87.23 0 01.95-12.91 6 6 0 015.89-5.06z" fill="#0072bc" opacity=".1"/><path d="M869.49 328.43c-.37 5.09-1.28 9-2.31 10.94-4.31 8-9.61 15.52-14.29 23.33a16.11 16.11 0 01-11.65 8.18 33.16 33.16 0 01-12.75-.14c-1.17-.21-2.33-.48-3.48-.8-9.14-2.5-15-7.88-18.55-17.09-2.09-5.47-3.53-12.22-7.58-16.71-8-8.88-19.51-4.58-22.82-18.77-8.39-35.95 42.79-56.81 69-42.53 16 8.72 23.45 26.26 24.51 43.8a72.64 72.64 0 01-.08 9.79z" fill="#ff9200"/><path d="M869.49 328.43c-.37 5.09-1.28 9-2.31 10.94-4.31 8-9.61 15.52-14.29 23.33a16.11 16.11 0 01-11.65 8.18 33.16 33.16 0 01-12.75-.14c-.68-.13-1.64-4.8-1.77-5.51-1.27-6.8-2.53-13.66-5.19-20.09-4.08-9.84-12.29-17.15-16.45-27a28.64 28.64 0 01-2.28-15.83c.66-3.82.92-7 3.18-10.38a18.19 18.19 0 018.26-7c6.47-2.47 16.29-4.75 23.14-3.42 4 .77 7.57 2.94 11 5.14a45.26 45.26 0 019.82 7.85c3.3 3.77 5.38 8.45 7.24 13.1q2.17 5.47 4.1 11a72.64 72.64 0 01-.05 9.83z" fill="#ff7f00"/><ellipse cx="822.65" cy="298.29" rx="16.18" ry="17.18" transform="rotate(-5.31 822.844 298.356)" fill="#fff"/><path d="M935.47 403.4c-2.83 10.25-10.45 19.19-27.05 24.41-10.39 3.26-23.26 2.81-33.39-1.72-14.67-6.56-23.26-21.59-28.55-36.06-23.34-63.8-31.49-89.93-31.72-91.7-1.86-14.47 2-28.87 13.76-38.23a40.49 40.49 0 015.2-3.51c15-8.51 35.27-7.58 48.51 4.19 12.33 11 14.68 28.46 14.55 44.07-.14 15.28-2.87 30.34-3.71 45.57-.51 9.28-.33 18.66 1.58 27.8 2.05 9.73 4.73 21 13.59 26.82 7.42 4.84 20.1 3.68 27.23-1.64z" fill="#ff9200"/><path d="M935.47 403.4c-6.54 7-18 11.32-26.75 11.45a34.89 34.89 0 01-13-2c-8-3.05-13.82-10-17.68-17.4-14.45-27.67-15.69-60.18-12-90.57 1.28-10.5 3.95-28.81.32-39.23-4.61-13.24-24.71-12.57-32.64-9.09 15-8.51 35.27-7.58 48.51 4.19 12.33 11 14.68 28.46 14.55 44.07-.14 15.28-2.87 30.34-3.71 45.57-.51 9.28-.33 18.66 1.58 27.8 2.05 9.73 4.73 21 13.59 26.82 7.42 4.87 20.1 3.71 27.23-1.61z" fill="#ff7f00"/><circle cx="912.11" cy="82.45" r="18.72" fill="#0072bc" opacity=".1"/><path d="M268.43 96.62a108.12 108.12 0 00-10.85-.55 105.34 105.34 0 1010.85.55zm-10.85 203.06a97.82 97.82 0 01-62.52-22.51q-.85-.69-1.68-1.41a98.16 98.16 0 0164.2-172.42c2.81 0 5.6.12 8.35.35a98.17 98.17 0 01-8.35 196z" fill="#0072bc" opacity=".2"/><g opacity=".2"><path d="M312.26 146.33l-52.85 57.27a2.72 2.72 0 01-2.13.89l-53.64-2a1 1 0 010-2l53.64-2-2.15.91 55.72-54.48a1 1 0 011.41 0 1 1 0 010 1.41z" fill="#0072bc"/></g><g opacity=".2"><path fill="#0072bc" d="M256.57 122h2v14.78h-2z"/></g><g opacity=".2"><path transform="rotate(-30 221.462 138.9)" fill="#0072bc" d="M220.47 131.51h2v14.78h-2z"/></g><g opacity=".2"><path transform="rotate(-60 194.955 165.188)" fill="#0072bc" d="M193.95 157.8h2v14.78h-2z"/></g><g opacity=".2"><path fill="#0072bc" d="M177.75 200.2h14.78v2h-14.78z"/></g><g opacity=".2"><path transform="rotate(-29.99 194.684 237.343)" fill="#0072bc" d="M187.26 236.31h14.78v2h-14.78z"/></g><g opacity=".2"><path transform="rotate(-60 220.93 263.82)" fill="#0072bc" d="M213.55 262.82h14.78v2h-14.78z"/></g><g opacity=".2"><path fill="#0072bc" d="M255.96 266.24h2v14.78h-2z"/></g><g opacity=".2"><path transform="rotate(-30 293.049 264.122)" fill="#0072bc" d="M292.06 256.73h2v14.78h-2z"/></g><g opacity=".2"><path transform="rotate(-60 319.565 237.837)" fill="#0072bc" d="M318.57 230.45h2v14.78h-2z"/></g><g opacity=".2"><path fill="#0072bc" d="M322 200.82h14.78v2H322z"/></g><g opacity=".2"><path transform="rotate(-29.99 319.94 165.722)" fill="#0072bc" d="M312.49 164.71h14.78v2h-14.78z"/></g><g opacity=".2"><path transform="rotate(-60 293.582 139.2)" fill="#0072bc" d="M286.2 138.2h14.78v2H286.2z"/></g><path d="M1081.31 338.45a6 6 0 00-5.89-5.06h-26.26a39.91 39.91 0 00-1-12.05 17.2 17.2 0 015.3-2.79l1.57-.63a11 11 0 007 3h1c3 0 7-1.08 11-5.56a1 1 0 00-.1-1.42 1 1 0 00-1.41.1c-3.83 4.38-7.71 5-10.29 4.85A9.75 9.75 0 011057 317a19.93 19.93 0 002.49-1.44 17.77 17.77 0 002.29-1.85 14.19 14.19 0 003.91-6.3c5.71-1.69 7.86-4.51 7.86-10.23a1 1 0 00-2 0c0 4.45-1.35 6.56-5.38 8a19.52 19.52 0 00-.17-6 1 1 0 00-1.16-.82 1 1 0 00-.81 1.16 16.35 16.35 0 01-.15 6.94 12 12 0 01-3.1 5.42c-4.1-1.82-6.45-5-6.45-8.7a1 1 0 00-2 0c0 4.25 2.53 7.94 6.83 10.14-.26.2-.53.39-.81.58a26.84 26.84 0 01-5.63 2.76 21.93 21.93 0 00-5.11 2.53 43.097 43.097 0 00-1.41-4.28 50.33 50.33 0 00-3-6.51c2-4.53 4.47-6.74 8.58-10.32l1.4-1.23a13.16 13.16 0 003.22.41 14.58 14.58 0 0013.18-9 1 1 0 00-.53-1.32 1 1 0 00-1.31.52 12.43 12.43 0 01-12.75 7.68 16.15 16.15 0 003.85-6.42c6.6-1.44 10-5.78 10-12.93a1 1 0 10-2 0c0 5.76-2.41 9.28-7.33 10.71a46.84 46.84 0 00.84-11.69 1 1 0 10-2 .06c.28 8.5-.88 13.11-2.65 16.13-7.05-3.82-7.21-11.11-6.12-14.94a1 1 0 00-1.93-.55c-1.24 4.39-1.07 12.71 6.91 17.15a19.1 19.1 0 01-2.25 2.32l-1.7 1.49c-5.83-2.84-9.27-8.74-8.83-12.67a1 1 0 00-.89-1.1 1 1 0 00-1.1.88c-.49 4.42 2.87 10.89 9.19 14.31-3 2.65-5.2 4.86-7 8.38-.77-1.25-1.51-2.37-2.17-3.35a22.26 22.26 0 01-2.27-3.84c-1.41-3.76-2.63-8.42-2-17a1 1 0 00-.92-1.08 1 1 0 00-1.07.92c-.62 8 .37 12.89 1.6 16.53l-1.31-.79c-4.32-2.57-7.74-4.59-8.89-11.9a1 1 0 00-2 .31c1.3 8.24 5.45 10.7 9.85 13.31 1.25.74 2.54 1.51 3.84 2.44.41.69.91 1.43 1.46 2.26a55.84 55.84 0 015.73 10.39 18 18 0 01-9.29-2 5.64 5.64 0 01.42-3.4 6.59 6.59 0 00.34-4.48 1 1 0 00-1.92.55 4.63 4.63 0 01-.3 3.24 9 9 0 00-.64 2.69 15.79 15.79 0 01-4.74-6.57 1 1 0 00-1.86.74 16.87 16.87 0 0010.36 10.17 7.25 7.25 0 01-4.63 3.3 6.17 6.17 0 01-5.47-2.07 1 1 0 00-1.42 0 1 1 0 000 1.41 8.32 8.32 0 006 2.73 8 8 0 001.26-.1 9.37 9.37 0 006.28-4.71 22.72 22.72 0 005 .54c.46 0 .93 0 1.4-.06.13.36.26.7.39 1.07.41 1.22.75 2.41 1 3.55a1 1 0 00.09.44 38.65 38.65 0 011 11.94h-25.34a6 6 0 00-5.89 5.06 87.23 87.23 0 00-.95 12.91c0 9 3.25 17.44 6.17 24.92a6 6 0 005.55 3.8h43.85a6 6 0 005.55-3.8c2.92-7.46 6.16-15.94 6.16-24.92a87.22 87.22 0 00-.89-12.97zm-7.08 37.1a4 4 0 01-3.69 2.53h-43.85a4 4 0 01-3.68-2.52c-2.69-6.89-6-15.46-6-24.2a85 85 0 01.93-12.61 4 4 0 013.91-3.36h53.61a3.93 3.93 0 013.91 3.36 85 85 0 01.92 12.61c-.04 8.8-3.38 17.33-6.06 24.19z" fill="#0072bc"/><path d="M118.81 583.1l-2.17 9.81a12.12 12.12 0 002.39 10.2l3.48 4.38a9.06 9.06 0 01.56 10.68l-3.91 6a31.48 31.48 0 00-3.36 27.94 14.18 14.18 0 0010.32 9.11 13.34 13.34 0 0110.16 15.89l-1.32 6a51.4 51.4 0 00-.57 19.07 47 47 0 0011.83 24.46l12.61 13.81 18.28 4 10.68-35.12A58 58 0 00174.91 653a21.61 21.61 0 01-2.75-25.56l1.86-3.15a30.7 30.7 0 003.84-20.41l-.73-4.63a12.84 12.84 0 00-12.54-10.81l-8.08-.1a7 7 0 01-6.88-6.92l-.08-10.63a27.2 27.2 0 00-17.33-25.14h-.25A14.44 14.44 0 00112.59 556a22.33 22.33 0 002 15l3.6 7a7.89 7.89 0 01.62 5.1z" fill="#ff9200"/><path d="M133.69 576.88a69.46 69.46 0 013.39 10.9 108.29 108.29 0 011.11 11.37 96.84 96.84 0 001.12 11.14 52.91 52.91 0 003.86 10.38l4.53 10.39 3.91 9 1.78-5.73c.9-2.82 1.68-5.69 2.73-8.54a60.93 60.93 0 013.78-8.11l4.31-7.78-3.89 8a59.89 59.89 0 00-3.3 8.19c-.9 2.79-1.52 5.69-2.28 8.6l-2 8a60.32 60.32 0 013.58 9.55 44.8 44.8 0 011.37 11.58l-.31 11.38-.07 3.13c.63-2 1.2-4 1.95-6a45.08 45.08 0 012.78-6l3.18-5.73-2.86 5.89a42.31 42.31 0 00-2.45 6c-.66 2-1.13 4.19-1.67 6.31l-1.06 4.2-.09 3.53a104.63 104.63 0 00.13 11.2 81.39 81.39 0 001.6 11.09c.83 3.63 1.8 7.28 2.69 10.92 1.71 7.37 3.53 14.7 5.15 22.09-2.23-7.22-4.31-14.5-6.4-21.73-1-3.66-2.08-7.32-3.07-11a83.19 83.19 0 01-2-11.29c-.11-1-.14-2-.21-3l-2.08-4.83c-.87-2-1.66-4-2.63-6a43.1 43.1 0 00-3.34-5.58l-3.75-5.38 4 5.16a44.67 44.67 0 013.69 5.46c1.09 1.9 2 3.93 3 5.86l.91 1.87v-5l.16-11.33.14-11.32a41.29 41.29 0 00-.28-5l-6.95-4.52c-2.49-1.59-4.94-3.3-7.48-4.73a58.45 58.45 0 00-8-3.77l-8.29-3.24 8.54 2.73a60.25 60.25 0 018.28 3.4c2.68 1.33 5.21 2.9 7.79 4.42l5.85 3.36c-.2-1.19-.44-2.37-.75-3.53a67.49 67.49 0 00-3.86-10.42l-4.41-10.45-4.42-10.45c-.72-1.76-1.49-3.44-2.19-5.27a33.26 33.26 0 01-1.55-5.65 97.44 97.44 0 01-.79-11.45c-.21-3.78-.13-7.58-.69-11.23a68.73 68.73 0 00-2.76-10.94l-3.2-10.87z" fill="#fff"/><path d="M261 632.39l1 6.61a8.06 8.06 0 01-2.12 6.65l-2.54 2.69a6 6 0 00-.9 7l2.29 4.15a21 21 0 01.76 18.69 9.46 9.46 0 01-7.33 5.5 8.9 8.9 0 00-7.58 10l.56 4.06a34.1 34.1 0 01-.62 12.69 31.3 31.3 0 01-9.14 15.63l-9.12 8.48-12.36 1.72-5.26-23.89a38.74 38.74 0 0111.47-36.73 14.41 14.41 0 003.16-16.83l-1.06-2.2a20.41 20.41 0 01-1.54-13.61l.73-3a8.56 8.56 0 018.89-6.53l5.38.36a4.66 4.66 0 004.93-4.23l.61-7A18.11 18.11 0 01254 606.74h.18a9.65 9.65 0 0112 6.45 10.57 10.57 0 01.32 1.46 14.9 14.9 0 01-2.08 9.88l-2.7 4.47a5.22 5.22 0 00-.72 3.39z" fill="#ff9200"/><path d="M251.4 627.48a46.55 46.55 0 00-2.81 7.06 73.05 73.05 0 00-1.34 7.47 64.66 64.66 0 01-1.32 7.33 35.35 35.35 0 01-3.1 6.69l-3.56 6.67-3.07 5.76-.88-3.9c-.45-1.91-.83-3.86-1.39-5.79a39.2 39.2 0 00-2.08-5.53l-2.45-5.4 2.22 5.52a38.82 38.82 0 011.75 5.58c.46 1.9.72 3.86 1.06 5.8l.91 5.41a39.78 39.78 0 00-2.87 6.22A29.67 29.67 0 00231 684l-.41 7.56-.12 2.08c-.32-1.41-.58-2.74-1-4.1a29.06 29.06 0 00-1.53-4.15l-1.81-4 1.6 4.07a29.34 29.34 0 011.31 4.18c.33 1.41.53 2.84.78 4.26l.49 2.85-.13 2.31a70 70 0 01-.69 7.38 53.58 53.58 0 01-1.65 7.28c-.75 2.37-1.58 4.77-2.36 7.17-1.53 4.8-3.1 9.59-4.59 14.41 1.88-4.63 3.62-9.4 5.44-14.11.88-2.36 1.76-4.7 2.6-7.1a54 54 0 001.89-7.38c.13-.65.2-1.31.29-2l1.62-3.13c.68-1.29 1.31-2.6 2.07-3.83a30.21 30.21 0 012.51-3.54l2.78-3.37-3 3.22a30 30 0 00-2.72 3.44c-.83 1.22-1.53 2.5-2.29 3.74l-.71 1.19c.12-1.12.21-2.24.26-3.36l.5-7.53.49-7.53a30.09 30.09 0 01.46-3.28l4.85-2.64c1.75-.93 3.44-1.93 5.22-2.76a39.29 39.29 0 015.53-2.1l5.67-1.71-5.71 1.48a39.07 39.07 0 00-5.64 1.8c-1.86.75-3.61 1.65-5.4 2.5l-4.1 1.93c.2-.77.43-1.51.69-2.3a43.65 43.65 0 013.11-6.73l3.43-6.71 3.44-6.71c.57-1.12 1.15-2.19 1.72-3.38a22.76 22.76 0 001.33-3.68 64.37 64.37 0 001.11-7.56c.34-2.51.5-5 1.06-7.43a46.29 46.29 0 012.39-7.1l2.7-7.06z" fill="#fff"/><path d="M162 469.08l-5.13 13.3a17.21 17.21 0 001.13 14.84l3.92 6.82a12.87 12.87 0 01-1.58 15.05l-6.78 7.44a44.72 44.72 0 00-10.71 38.38 20.18 20.18 0 0012.53 15 18.94 18.94 0 0110.92 24.47v.14l-3.15 8.13C155 633.79 160 656.71 168 677.06c4.15 10.49 9.2 20.59 14.32 30.64 2 3.89 10.79 30.29 13.25 30.62l17.31 2.34 18.81-79.77a82.51 82.51 0 00-6-81.81 30.65 30.65 0 011.63-36.47l3.29-4a43.62 43.62 0 009.78-27.82l-.05-6.66a18.24 18.24 0 00-15.27-17.89l-11.31-1.86a9.9 9.9 0 01-8.17-11.18l2.16-14.84a38.72 38.72 0 00-18.92-39l-.33-.19a20.56 20.56 0 00-29.36 10.38 31.67 31.67 0 00-.52 21.51l3.56 10.62a11.27 11.27 0 01-.18 7.4z" fill="#ff9200"/><path d="M186.86 626.75c-.81-3-1.47-6-2.42-9a61.69 61.69 0 00-3.49-8.6l-4.11-8.35 4.56 8.2a64 64 0 014 8.45c1.12 2.93 2 5.93 2.92 8.87l.89 2.81c.3-2.38.66-4.76 1.08-7.11l2.61-15.87 2.62-15.85a60.24 60.24 0 00.64-7.09l-8.77-7.85c-3.17-2.78-6.21-5.68-9.48-8.26a84.85 84.85 0 00-10.39-7l-10.94-6.31 11.26 5.71a87.51 87.51 0 0110.95 6.5c3.49 2.46 6.68 5.2 10 7.79l7.39 6-.29-5.11a95.86 95.86 0 00-3.18-15.47l-3.95-15.63-3.95-15.63c-.65-2.62-1.34-5.21-2-7.87a45.88 45.88 0 01-1-8.26 135.43 135.43 0 011.37-16.22c.54-5.32 1.43-10.66 1.42-15.94a96.39 96.39 0 00-1.51-15.9l-2.15-16 3.22 15.83a98.33 98.33 0 012.4 16 155.93 155.93 0 01-.83 16.17 138.54 138.54 0 00-.85 15.91c.22 5.27 1.84 10.15 3.18 15.41l4.13 15.62 3.56 13.45 3.73-7.67c1.88-3.75 3.6-7.62 5.69-11.32a86.81 86.81 0 017-10.55l7.73-10-7.18 10.39a84.41 84.41 0 00-6.42 10.8c-1.85 3.72-3.37 7.66-5 11.53l-4.54 10.84a83.61 83.61 0 013 14.19 63.48 63.48 0 01-.58 16.52l-2.82 15.87-.79 4.38c1.33-2.67 2.54-5.44 4-8a63.52 63.52 0 015.19-7.79l5.69-7.38-5.28 7.65a61.89 61.89 0 00-4.71 8c-1.37 2.74-2.48 5.64-3.7 8.49l-2.39 5.67-.87 4.88a149.37 149.37 0 00-2.22 15.76 112.08 112.08 0 00-.13 15.87c.3 5.27 1 10.67 1.4 16 .83 10.7 7.25 57.31 8 68-1.58-10.62-8.46-57.2-9.86-67.83-.66-5.34-1.37-10.62-2-16a118 118 0 01-.41-16.28" fill="#fff"/><path d="M254.07 730.63v84.14a47 47 0 01-47 47H179a47 47 0 01-47-47v-84.14z" fill="#fff"/><path d="M254.07 730.63v84.14a47 47 0 01-47 47H179a46.91 46.91 0 01-37.28-18.39c17.9 6 48.89 9.74 66-1.84 30-20.34 25.19-78.13 24.71-110.92z" fill="#e4eaf1" opacity=".8"/></g></g></g></svg>